<mxfile host="Electron" agent="Mozilla/5.0 (Windows NT 10.0; Win64; x64) AppleWebKit/537.36 (KHTML, like Gecko) draw.io/24.7.17 Chrome/128.0.6613.36 Electron/32.0.1 Safari/537.36" version="24.7.17">
  <diagram name="Page-1" id="EQmlDa9kzBxLeCqIMSav">
    <mxGraphModel dx="1539" dy="2813" grid="1" gridSize="10" guides="1" tooltips="1" connect="1" arrows="1" fold="1" page="1" pageScale="1" pageWidth="850" pageHeight="1100" background="#000000" math="0" shadow="1">
      <root>
        <mxCell id="0" />
        <mxCell id="1" parent="0" />
        <mxCell id="RlytgDrDSWxV3R8-WN7c-71" value="" style="rounded=1;whiteSpace=wrap;html=1;fillColor=#60a917;fontColor=#ffffff;strokeColor=#2D7600;" vertex="1" parent="1">
          <mxGeometry x="-262" y="-1230" width="362" height="175" as="geometry" />
        </mxCell>
        <mxCell id="RlytgDrDSWxV3R8-WN7c-70" value="" style="rounded=1;whiteSpace=wrap;html=1;fillColor=#1ba1e2;fontColor=#ffffff;strokeColor=#006EAF;dashed=1;" vertex="1" parent="1">
          <mxGeometry x="-310" y="-1020" width="460" height="250" as="geometry" />
        </mxCell>
        <mxCell id="RlytgDrDSWxV3R8-WN7c-69" value="" style="rounded=1;whiteSpace=wrap;html=1;fillColor=#008a00;dashed=1;fontColor=#ffffff;strokeColor=#005700;" vertex="1" parent="1">
          <mxGeometry x="-640" y="-750" width="1100" height="710" as="geometry" />
        </mxCell>
        <mxCell id="RlytgDrDSWxV3R8-WN7c-62" style="edgeStyle=orthogonalEdgeStyle;rounded=0;orthogonalLoop=1;jettySize=auto;html=1;" edge="1" parent="1" source="RlytgDrDSWxV3R8-WN7c-10" target="RlytgDrDSWxV3R8-WN7c-46">
          <mxGeometry relative="1" as="geometry">
            <Array as="points">
              <mxPoint x="-110" y="-760" />
              <mxPoint x="-110" y="-760" />
            </Array>
          </mxGeometry>
        </mxCell>
        <mxCell id="RlytgDrDSWxV3R8-WN7c-10" value="Frontend component" style="dropTarget=0;labelPosition=center;verticalLabelPosition=middle;align=center;verticalAlign=top;whiteSpace=wrap;html=1;" vertex="1" parent="1">
          <mxGeometry x="-252" y="-980" width="360" height="180" as="geometry" />
        </mxCell>
        <mxCell id="RlytgDrDSWxV3R8-WN7c-11" value="" style="shape=module;jettyWidth=8;jettyHeight=4;" vertex="1" parent="RlytgDrDSWxV3R8-WN7c-10">
          <mxGeometry x="1" width="20" height="20" relative="1" as="geometry">
            <mxPoint x="-27" y="7" as="offset" />
          </mxGeometry>
        </mxCell>
        <mxCell id="RlytgDrDSWxV3R8-WN7c-9" value="CSS" style="shape=module;align=left;spacingLeft=20;align=center;verticalAlign=top;whiteSpace=wrap;html=1;" vertex="1" parent="1">
          <mxGeometry x="-2" y="-940" width="90" height="50" as="geometry" />
        </mxCell>
        <mxCell id="RlytgDrDSWxV3R8-WN7c-5" value="Javascript" style="shape=module;align=left;spacingLeft=20;align=center;verticalAlign=top;whiteSpace=wrap;html=1;" vertex="1" parent="1">
          <mxGeometry x="-172" y="-870" width="90" height="50" as="geometry" />
        </mxCell>
        <mxCell id="RlytgDrDSWxV3R8-WN7c-6" value="Thymeleaf" style="shape=module;align=left;spacingLeft=20;align=center;verticalAlign=top;whiteSpace=wrap;html=1;" vertex="1" parent="1">
          <mxGeometry x="-229.5" y="-940" width="90" height="50" as="geometry" />
        </mxCell>
        <mxCell id="RlytgDrDSWxV3R8-WN7c-7" value="Canvas.js" style="shape=module;align=left;spacingLeft=20;align=center;verticalAlign=top;whiteSpace=wrap;html=1;" vertex="1" parent="1">
          <mxGeometry x="-119.5" y="-940" width="90" height="50" as="geometry" />
        </mxCell>
        <mxCell id="RlytgDrDSWxV3R8-WN7c-8" value="HTML" style="shape=module;align=left;spacingLeft=20;align=center;verticalAlign=top;whiteSpace=wrap;html=1;" vertex="1" parent="1">
          <mxGeometry x="-35" y="-870" width="90" height="50" as="geometry" />
        </mxCell>
        <mxCell id="RlytgDrDSWxV3R8-WN7c-19" style="edgeStyle=orthogonalEdgeStyle;rounded=0;orthogonalLoop=1;jettySize=auto;html=1;startArrow=classic;startFill=1;" edge="1" parent="1" source="RlytgDrDSWxV3R8-WN7c-12" target="RlytgDrDSWxV3R8-WN7c-10">
          <mxGeometry relative="1" as="geometry">
            <Array as="points">
              <mxPoint x="-79" y="-1030" />
              <mxPoint x="-79" y="-1030" />
            </Array>
          </mxGeometry>
        </mxCell>
        <mxCell id="RlytgDrDSWxV3R8-WN7c-12" value="User (UI)" style="dropTarget=0;labelPosition=center;verticalLabelPosition=middle;align=center;verticalAlign=top;whiteSpace=wrap;html=1;" vertex="1" parent="1">
          <mxGeometry x="-149" y="-1210" width="138" height="110" as="geometry" />
        </mxCell>
        <mxCell id="RlytgDrDSWxV3R8-WN7c-13" value="" style="shape=module;jettyWidth=8;jettyHeight=4;" vertex="1" parent="RlytgDrDSWxV3R8-WN7c-12">
          <mxGeometry x="1" width="20" height="20" relative="1" as="geometry">
            <mxPoint x="-27" y="7" as="offset" />
          </mxGeometry>
        </mxCell>
        <mxCell id="RlytgDrDSWxV3R8-WN7c-16" value="Web Browser" style="shape=module;align=left;spacingLeft=20;align=center;verticalAlign=top;whiteSpace=wrap;html=1;" vertex="1" parent="1">
          <mxGeometry x="-126.5" y="-1170" width="90" height="50" as="geometry" />
        </mxCell>
        <mxCell id="RlytgDrDSWxV3R8-WN7c-20" value="HTTP and REST API Requests&amp;nbsp;" style="text;html=1;align=center;verticalAlign=middle;resizable=0;points=[];autosize=1;strokeColor=none;fillColor=none;" vertex="1" parent="1">
          <mxGeometry x="-82" y="-1090" width="190" height="30" as="geometry" />
        </mxCell>
        <mxCell id="RlytgDrDSWxV3R8-WN7c-54" style="rounded=0;orthogonalLoop=1;jettySize=auto;html=1;startArrow=classic;startFill=1;" edge="1" parent="1" source="RlytgDrDSWxV3R8-WN7c-21" target="RlytgDrDSWxV3R8-WN7c-40">
          <mxGeometry relative="1" as="geometry" />
        </mxCell>
        <mxCell id="RlytgDrDSWxV3R8-WN7c-21" value="Prediction (ML) Service" style="dropTarget=0;labelPosition=center;verticalLabelPosition=middle;align=center;verticalAlign=top;whiteSpace=wrap;html=1;" vertex="1" parent="1">
          <mxGeometry x="-326.75" y="-480" width="247.5" height="130" as="geometry" />
        </mxCell>
        <mxCell id="RlytgDrDSWxV3R8-WN7c-22" value="" style="shape=module;jettyWidth=8;jettyHeight=4;" vertex="1" parent="RlytgDrDSWxV3R8-WN7c-21">
          <mxGeometry x="1" width="20" height="20" relative="1" as="geometry">
            <mxPoint x="-27" y="7" as="offset" />
          </mxGeometry>
        </mxCell>
        <mxCell id="RlytgDrDSWxV3R8-WN7c-23" value="LSTM" style="shape=module;align=left;spacingLeft=20;align=center;verticalAlign=top;whiteSpace=wrap;html=1;" vertex="1" parent="1">
          <mxGeometry x="-306.75" y="-430" width="90" height="50" as="geometry" />
        </mxCell>
        <mxCell id="RlytgDrDSWxV3R8-WN7c-24" value="TensorFlow" style="shape=module;align=left;spacingLeft=20;align=center;verticalAlign=top;whiteSpace=wrap;html=1;" vertex="1" parent="1">
          <mxGeometry x="-189.25" y="-430" width="90" height="50" as="geometry" />
        </mxCell>
        <mxCell id="RlytgDrDSWxV3R8-WN7c-55" style="rounded=0;orthogonalLoop=1;jettySize=auto;html=1;startArrow=classic;startFill=1;" edge="1" parent="1" source="RlytgDrDSWxV3R8-WN7c-26" target="RlytgDrDSWxV3R8-WN7c-40">
          <mxGeometry relative="1" as="geometry" />
        </mxCell>
        <mxCell id="RlytgDrDSWxV3R8-WN7c-26" value="Fundamental Analysis Service" style="dropTarget=0;labelPosition=center;verticalLabelPosition=middle;align=center;verticalAlign=top;whiteSpace=wrap;html=1;" vertex="1" parent="1">
          <mxGeometry x="180.25" y="-480" width="247.5" height="180" as="geometry" />
        </mxCell>
        <mxCell id="RlytgDrDSWxV3R8-WN7c-27" value="" style="shape=module;jettyWidth=8;jettyHeight=4;" vertex="1" parent="RlytgDrDSWxV3R8-WN7c-26">
          <mxGeometry x="1" width="20" height="20" relative="1" as="geometry">
            <mxPoint x="-27" y="7" as="offset" />
          </mxGeometry>
        </mxCell>
        <mxCell id="RlytgDrDSWxV3R8-WN7c-28" value="NLP" style="shape=module;align=left;spacingLeft=20;align=center;verticalAlign=top;whiteSpace=wrap;html=1;" vertex="1" parent="1">
          <mxGeometry x="200.25" y="-430" width="90" height="50" as="geometry" />
        </mxCell>
        <mxCell id="RlytgDrDSWxV3R8-WN7c-29" value="Pandas" style="shape=module;align=left;spacingLeft=20;align=center;verticalAlign=top;whiteSpace=wrap;html=1;" vertex="1" parent="1">
          <mxGeometry x="317.75" y="-430" width="90" height="50" as="geometry" />
        </mxCell>
        <mxCell id="RlytgDrDSWxV3R8-WN7c-30" value="Numpy" style="shape=module;align=left;spacingLeft=20;align=center;verticalAlign=top;whiteSpace=wrap;html=1;" vertex="1" parent="1">
          <mxGeometry x="259" y="-370" width="90" height="50" as="geometry" />
        </mxCell>
        <mxCell id="RlytgDrDSWxV3R8-WN7c-57" style="rounded=0;orthogonalLoop=1;jettySize=auto;html=1;startArrow=classic;startFill=1;" edge="1" parent="1" source="RlytgDrDSWxV3R8-WN7c-31" target="RlytgDrDSWxV3R8-WN7c-40">
          <mxGeometry relative="1" as="geometry" />
        </mxCell>
        <mxCell id="RlytgDrDSWxV3R8-WN7c-31" value="Technical Analysis Service" style="dropTarget=0;labelPosition=center;verticalLabelPosition=middle;align=center;verticalAlign=top;whiteSpace=wrap;html=1;" vertex="1" parent="1">
          <mxGeometry x="-64.75" y="-480" width="230" height="120" as="geometry" />
        </mxCell>
        <mxCell id="RlytgDrDSWxV3R8-WN7c-32" value="" style="shape=module;jettyWidth=8;jettyHeight=4;" vertex="1" parent="RlytgDrDSWxV3R8-WN7c-31">
          <mxGeometry x="1" width="20" height="20" relative="1" as="geometry">
            <mxPoint x="-27" y="7" as="offset" />
          </mxGeometry>
        </mxCell>
        <mxCell id="RlytgDrDSWxV3R8-WN7c-34" value="Pandas" style="shape=module;align=left;spacingLeft=20;align=center;verticalAlign=top;whiteSpace=wrap;html=1;" vertex="1" parent="1">
          <mxGeometry x="65.25" y="-430" width="90" height="50" as="geometry" />
        </mxCell>
        <mxCell id="RlytgDrDSWxV3R8-WN7c-35" value="Numpy" style="shape=module;align=left;spacingLeft=20;align=center;verticalAlign=top;whiteSpace=wrap;html=1;" vertex="1" parent="1">
          <mxGeometry x="-47.75" y="-430" width="90" height="50" as="geometry" />
        </mxCell>
        <mxCell id="RlytgDrDSWxV3R8-WN7c-53" style="rounded=0;orthogonalLoop=1;jettySize=auto;html=1;startArrow=classic;startFill=1;" edge="1" parent="1" source="RlytgDrDSWxV3R8-WN7c-36" target="RlytgDrDSWxV3R8-WN7c-40">
          <mxGeometry relative="1" as="geometry" />
        </mxCell>
        <mxCell id="RlytgDrDSWxV3R8-WN7c-36" value="Stock Price Extraction Service" style="dropTarget=0;labelPosition=center;verticalLabelPosition=middle;align=center;verticalAlign=top;whiteSpace=wrap;html=1;" vertex="1" parent="1">
          <mxGeometry x="-596.75" y="-480" width="247.5" height="130" as="geometry" />
        </mxCell>
        <mxCell id="RlytgDrDSWxV3R8-WN7c-37" value="" style="shape=module;jettyWidth=8;jettyHeight=4;" vertex="1" parent="RlytgDrDSWxV3R8-WN7c-36">
          <mxGeometry x="1" width="20" height="20" relative="1" as="geometry">
            <mxPoint x="-27" y="7" as="offset" />
          </mxGeometry>
        </mxCell>
        <mxCell id="RlytgDrDSWxV3R8-WN7c-38" value="Web scraping" style="shape=module;align=left;spacingLeft=20;align=center;verticalAlign=top;whiteSpace=wrap;html=1;" vertex="1" parent="1">
          <mxGeometry x="-576.75" y="-430" width="90" height="50" as="geometry" />
        </mxCell>
        <mxCell id="RlytgDrDSWxV3R8-WN7c-39" value="API Calls" style="shape=module;align=left;spacingLeft=20;align=center;verticalAlign=top;whiteSpace=wrap;html=1;" vertex="1" parent="1">
          <mxGeometry x="-459.25" y="-430" width="90" height="50" as="geometry" />
        </mxCell>
        <mxCell id="RlytgDrDSWxV3R8-WN7c-40" value="Storage Access service" style="dropTarget=0;labelPosition=center;verticalLabelPosition=middle;align=center;verticalAlign=top;whiteSpace=wrap;html=1;" vertex="1" parent="1">
          <mxGeometry x="-256.75" y="-260" width="247.5" height="200" as="geometry" />
        </mxCell>
        <mxCell id="RlytgDrDSWxV3R8-WN7c-41" value="" style="shape=module;jettyWidth=8;jettyHeight=4;" vertex="1" parent="RlytgDrDSWxV3R8-WN7c-40">
          <mxGeometry x="1" width="20" height="20" relative="1" as="geometry">
            <mxPoint x="-27" y="7" as="offset" />
          </mxGeometry>
        </mxCell>
        <mxCell id="RlytgDrDSWxV3R8-WN7c-42" value="CSV" style="shape=module;align=left;spacingLeft=20;align=center;verticalAlign=top;whiteSpace=wrap;html=1;" vertex="1" parent="1">
          <mxGeometry x="-236.75" y="-210" width="90" height="50" as="geometry" />
        </mxCell>
        <mxCell id="RlytgDrDSWxV3R8-WN7c-43" value="JSON" style="shape=module;align=left;spacingLeft=20;align=center;verticalAlign=top;whiteSpace=wrap;html=1;" vertex="1" parent="1">
          <mxGeometry x="-119.25" y="-210" width="90" height="50" as="geometry" />
        </mxCell>
        <mxCell id="RlytgDrDSWxV3R8-WN7c-44" value="SQL database" style="shape=module;align=left;spacingLeft=20;align=center;verticalAlign=top;whiteSpace=wrap;html=1;" vertex="1" parent="1">
          <mxGeometry x="-178" y="-140" width="90" height="50" as="geometry" />
        </mxCell>
        <mxCell id="RlytgDrDSWxV3R8-WN7c-58" style="rounded=0;orthogonalLoop=1;jettySize=auto;html=1;startArrow=classic;startFill=1;" edge="1" parent="1" source="RlytgDrDSWxV3R8-WN7c-46" target="RlytgDrDSWxV3R8-WN7c-36">
          <mxGeometry relative="1" as="geometry" />
        </mxCell>
        <mxCell id="RlytgDrDSWxV3R8-WN7c-59" style="rounded=0;orthogonalLoop=1;jettySize=auto;html=1;startArrow=classic;startFill=1;" edge="1" parent="1" source="RlytgDrDSWxV3R8-WN7c-46" target="RlytgDrDSWxV3R8-WN7c-21">
          <mxGeometry relative="1" as="geometry" />
        </mxCell>
        <mxCell id="RlytgDrDSWxV3R8-WN7c-60" style="rounded=0;orthogonalLoop=1;jettySize=auto;html=1;startArrow=classic;startFill=1;" edge="1" parent="1" source="RlytgDrDSWxV3R8-WN7c-46" target="RlytgDrDSWxV3R8-WN7c-31">
          <mxGeometry relative="1" as="geometry" />
        </mxCell>
        <mxCell id="RlytgDrDSWxV3R8-WN7c-61" style="rounded=0;orthogonalLoop=1;jettySize=auto;html=1;entryX=0.166;entryY=0.003;entryDx=0;entryDy=0;entryPerimeter=0;startArrow=classic;startFill=1;" edge="1" parent="1" source="RlytgDrDSWxV3R8-WN7c-46" target="RlytgDrDSWxV3R8-WN7c-26">
          <mxGeometry relative="1" as="geometry" />
        </mxCell>
        <mxCell id="RlytgDrDSWxV3R8-WN7c-63" style="edgeStyle=orthogonalEdgeStyle;rounded=0;orthogonalLoop=1;jettySize=auto;html=1;" edge="1" parent="1" source="RlytgDrDSWxV3R8-WN7c-46" target="RlytgDrDSWxV3R8-WN7c-10">
          <mxGeometry relative="1" as="geometry">
            <Array as="points">
              <mxPoint x="-20" y="-760" />
              <mxPoint x="-20" y="-760" />
            </Array>
          </mxGeometry>
        </mxCell>
        <mxCell id="RlytgDrDSWxV3R8-WN7c-46" value="API Gateway Service" style="dropTarget=0;labelPosition=center;verticalLabelPosition=middle;align=center;verticalAlign=top;whiteSpace=wrap;html=1;" vertex="1" parent="1">
          <mxGeometry x="-240" y="-730" width="320" height="180" as="geometry" />
        </mxCell>
        <mxCell id="RlytgDrDSWxV3R8-WN7c-47" value="" style="shape=module;jettyWidth=8;jettyHeight=4;" vertex="1" parent="RlytgDrDSWxV3R8-WN7c-46">
          <mxGeometry x="1" width="20" height="20" relative="1" as="geometry">
            <mxPoint x="-27" y="7" as="offset" />
          </mxGeometry>
        </mxCell>
        <mxCell id="RlytgDrDSWxV3R8-WN7c-48" value="Load Balancing" style="shape=module;align=left;spacingLeft=20;align=center;verticalAlign=top;whiteSpace=wrap;html=1;" vertex="1" parent="1">
          <mxGeometry x="-220.5" y="-700" width="110.5" height="60" as="geometry" />
        </mxCell>
        <mxCell id="RlytgDrDSWxV3R8-WN7c-49" value="Authentication and Authorization" style="shape=module;align=left;spacingLeft=20;align=center;verticalAlign=top;whiteSpace=wrap;html=1;" vertex="1" parent="1">
          <mxGeometry x="-70" y="-700" width="110.5" height="60" as="geometry" />
        </mxCell>
        <mxCell id="RlytgDrDSWxV3R8-WN7c-50" value="Routing" style="shape=module;align=left;spacingLeft=20;align=center;verticalAlign=top;whiteSpace=wrap;html=1;" vertex="1" parent="1">
          <mxGeometry x="-220.5" y="-630" width="110.5" height="50" as="geometry" />
        </mxCell>
        <mxCell id="RlytgDrDSWxV3R8-WN7c-52" value="Response Aggregation" style="shape=module;align=left;spacingLeft=20;align=center;verticalAlign=top;whiteSpace=wrap;html=1;" vertex="1" parent="1">
          <mxGeometry x="-70" y="-630" width="110" height="50" as="geometry" />
        </mxCell>
        <mxCell id="RlytgDrDSWxV3R8-WN7c-64" value="Store Extracted data" style="text;html=1;align=center;verticalAlign=middle;resizable=0;points=[];autosize=1;strokeColor=none;fillColor=none;" vertex="1" parent="1">
          <mxGeometry x="-425" y="-290" width="130" height="30" as="geometry" />
        </mxCell>
        <mxCell id="RlytgDrDSWxV3R8-WN7c-65" value="Predict based on stored data" style="text;html=1;align=center;verticalAlign=middle;resizable=0;points=[];autosize=1;strokeColor=none;fillColor=none;" vertex="1" parent="1">
          <mxGeometry x="-268" y="-330" width="180" height="30" as="geometry" />
        </mxCell>
        <mxCell id="RlytgDrDSWxV3R8-WN7c-66" value="Analysis on stored data" style="text;html=1;align=center;verticalAlign=middle;resizable=0;points=[];autosize=1;strokeColor=none;fillColor=none;" vertex="1" parent="1">
          <mxGeometry x="-89.75" y="-330" width="150" height="30" as="geometry" />
        </mxCell>
        <mxCell id="RlytgDrDSWxV3R8-WN7c-68" value="Analysis on stored data" style="text;html=1;align=center;verticalAlign=middle;resizable=0;points=[];autosize=1;strokeColor=none;fillColor=none;" vertex="1" parent="1">
          <mxGeometry x="35.25" y="-260" width="150" height="30" as="geometry" />
        </mxCell>
        <mxCell id="RlytgDrDSWxV3R8-WN7c-72" value="&lt;font style=&quot;font-size: 15px;&quot;&gt;Client&lt;/font&gt;" style="text;html=1;align=center;verticalAlign=middle;whiteSpace=wrap;rounded=0;" vertex="1" parent="1">
          <mxGeometry x="-262" y="-1220" width="60" height="30" as="geometry" />
        </mxCell>
        <mxCell id="RlytgDrDSWxV3R8-WN7c-73" value="&lt;font style=&quot;font-size: 15px;&quot;&gt;Web Server&lt;/font&gt;" style="text;html=1;align=center;verticalAlign=middle;whiteSpace=wrap;rounded=0;" vertex="1" parent="1">
          <mxGeometry x="-295" y="-1010" width="98" height="30" as="geometry" />
        </mxCell>
        <mxCell id="RlytgDrDSWxV3R8-WN7c-74" value="&lt;font style=&quot;font-size: 15px;&quot;&gt;Application Server&lt;/font&gt;" style="text;html=1;align=center;verticalAlign=middle;whiteSpace=wrap;rounded=0;" vertex="1" parent="1">
          <mxGeometry x="-590" y="-730" width="150" height="30" as="geometry" />
        </mxCell>
      </root>
    </mxGraphModel>
  </diagram>
</mxfile>
